<svg width="19" height="22" viewBox="0 0 19 22" fill="none" xmlns="http://www.w3.org/2000/svg">
<path d="M17.6891 21.6215C17.5055 21.6381 17.3218 21.5905 17.1694 21.4869C17.0169 21.3833 16.905 21.2299 16.8527 21.053L14.3047 14.1245H4.18174L1.70719 21.053C1.6472 21.2251 1.5335 21.3732 1.38289 21.4756C1.23228 21.578 1.05276 21.6291 0.870856 21.6215C0.724626 21.6204 0.58097 21.5829 0.45275 21.5125C0.32453 21.4422 0.21575 21.3411 0.136148 21.2183C0.0565459 21.0955 0.00860786 20.9549 -0.00337406 20.8091C-0.015356 20.6632 0.00899272 20.5167 0.0674911 20.3825L6.62331 2.27303C6.75931 1.67424 7.09522 1.13972 7.5756 0.757677C8.05598 0.375633 8.65213 0.168881 9.26572 0.171534C9.87827 0.172795 10.4731 0.377237 10.9572 0.752871C11.4413 1.1285 11.7873 1.65414 11.9411 2.24754L18.5359 20.39C18.5707 20.4868 18.5934 20.5876 18.6033 20.69C18.5982 20.9326 18.5007 21.1641 18.3308 21.3372C18.1609 21.5103 17.9313 21.612 17.6891 21.6215ZM4.84571 12.35H13.6423L10.1635 2.60903C10.1236 2.39742 10.0128 2.20579 9.84923 2.06585C9.68568 1.92591 9.47929 1.84606 9.26422 1.83953C8.86454 1.83953 8.56477 2.10755 8.36493 2.64355L4.84571 12.35Z" fill="#27A365"/>
</svg>
