<svg width="17" height="22" viewBox="0 0 17 22" fill="none" xmlns="http://www.w3.org/2000/svg">
<path d="M2.03532 21.626C1.80952 21.6386 1.58364 21.6028 1.37277 21.521C1.16191 21.4392 0.970889 21.3133 0.812546 21.1517C0.654203 20.9902 0.532176 20.7966 0.454584 20.584C0.376992 20.3714 0.345654 20.1447 0.362646 19.919V2.14551C0.345654 1.91983 0.376992 1.69311 0.454584 1.48052C0.532176 1.26793 0.654203 1.07437 0.812546 0.91278C0.970889 0.751188 1.16191 0.62529 1.37277 0.543502C1.58364 0.461714 1.80952 0.425917 2.03532 0.438514H7.2572C8.48353 0.357029 9.71323 0.535491 10.8659 0.962241C12.0186 1.38899 13.0683 2.05442 13.9464 2.91502C15.5947 4.67549 16.5149 6.99592 16.5214 9.40851C16.5882 10.512 16.5882 11.6185 16.5214 12.722C16.4847 15.1277 15.5532 17.4333 13.9089 19.1885C13.0272 20.0323 11.9809 20.6848 10.8355 21.1053C9.6902 21.5257 8.47045 21.7051 7.25267 21.632H2.03532V21.626ZM14.7752 9.34101C14.5084 4.85601 12.0654 2.21152 7.21672 2.21152H2.13274V19.8185H7.21672C12.0669 19.8185 14.5414 17.141 14.7752 12.689C14.8432 11.5746 14.8442 10.4571 14.7782 9.34252L14.7752 9.34101Z" fill="#5C5D5D"/>
</svg>
