<svg width="3" height="4" viewBox="0 0 3 4" fill="none" xmlns="http://www.w3.org/2000/svg">
<path d="M2.1604 2.8911C2.16924 3.02677 2.14963 3.16276 2.10283 3.2904C2.05604 3.41804 1.98308 3.53446 1.88865 3.63221C1.79423 3.72996 1.68043 3.80691 1.55455 3.85803C1.42866 3.90915 1.29347 3.93334 1.15768 3.92907C1.02347 3.92772 0.89086 3.8997 0.767562 3.84663C0.644264 3.79356 0.532734 3.71647 0.439444 3.6199C0.346154 3.52333 0.272979 3.4092 0.224145 3.28408C0.175311 3.15897 0.151802 3.02538 0.154986 2.8911V1.25157C0.0545651 -0.0879262 2.22933 -0.0879262 2.16188 1.25157L2.1604 2.8911Z" fill="#27A365"/>
</svg>
