<svg width="18" height="22" viewBox="0 0 18 22" fill="none" xmlns="http://www.w3.org/2000/svg">
<path d="M17.6058 14.498C17.6101 15.4726 17.4166 16.4379 17.0371 17.3354C16.6576 18.2329 16.1 19.044 15.3981 19.7195C14.6443 20.4663 13.7438 21.0483 12.7536 21.4286C11.7634 21.8089 10.7051 21.9794 9.64563 21.929C8.53481 21.9521 7.4305 21.7539 6.3969 21.346C5.3633 20.9381 4.42104 20.3286 3.62488 19.553C1.99758 17.9564 1.0302 15.8053 0.915024 13.5275C0.781255 11.8903 0.781255 10.2448 0.915024 8.60753C1.03094 6.34954 1.99955 4.21991 3.62488 2.64953C4.41646 1.86532 5.35714 1.24793 6.39127 0.833896C7.42541 0.419862 8.53201 0.217574 9.64563 0.239009C11.2511 0.195004 12.8324 0.638268 14.1815 1.51052C15.5305 2.38277 16.5843 3.64318 17.2042 5.12603C17.2557 5.26307 17.2736 5.41046 17.2565 5.55587C17.2394 5.70128 17.1878 5.84047 17.1059 5.96179C17.024 6.08312 16.9142 6.18305 16.7858 6.2532C16.6574 6.32336 16.5141 6.36169 16.3678 6.36501C16.185 6.37716 16.0034 6.32783 15.8519 6.22482C15.7004 6.12181 15.5876 5.97104 15.5315 5.79652C15.0304 4.65659 14.2047 3.68979 13.1576 3.01695C12.1104 2.34411 10.8884 1.99507 9.64413 2.01351C8.77852 2.00046 7.91894 2.15949 7.11519 2.48134C6.31145 2.8032 5.57952 3.28149 4.96182 3.88851C3.65832 5.11348 2.86906 6.78871 2.75407 8.57453C2.58687 10.2438 2.58687 11.9257 2.75407 13.595C2.87126 15.3827 3.64542 17.0636 4.92736 18.314C5.55156 18.9214 6.28933 19.3997 7.09843 19.7214C7.90754 20.0432 8.77209 20.2021 9.64263 20.189C11.2602 20.2597 12.8461 19.725 14.0911 18.689C14.659 18.2039 15.1103 17.5969 15.4113 16.9131C15.7124 16.2293 15.8554 15.4863 15.8297 14.7395V12.389H10.8132C10.5826 12.389 10.3615 12.2974 10.1985 12.1342C10.0355 11.9711 9.9439 11.7498 9.9439 11.519C9.9439 11.2883 10.0355 11.067 10.1985 10.9038C10.3615 10.7407 10.5826 10.649 10.8132 10.649H15.9302C16.1493 10.628 16.3704 10.6545 16.5783 10.7268C16.7862 10.7992 16.9761 10.9156 17.1349 11.0681C17.2937 11.2207 17.4177 11.4057 17.4985 11.6106C17.5793 11.8156 17.6149 12.0355 17.6028 12.2555L17.6058 14.498Z" fill="#27A365"/>
</svg>
