<svg width="14" height="22" viewBox="0 0 14 22" fill="none" xmlns="http://www.w3.org/2000/svg">
<path d="M0.673154 1.24254C0.673154 1.0118 0.764716 0.790529 0.927743 0.627373C1.09077 0.464216 1.31189 0.372559 1.54244 0.372559C1.773 0.372559 1.99412 0.464216 2.15715 0.627373C2.32017 0.790529 2.41174 1.0118 2.41174 1.24254V19.8201H12.9814C13.2162 19.8313 13.4385 19.9298 13.6048 20.0962C13.771 20.2626 13.8694 20.485 13.8807 20.72C13.8689 20.9521 13.7695 21.1711 13.6026 21.3326C13.4356 21.4942 13.2135 21.5862 12.9814 21.59H2.44622C2.21072 21.6 1.97573 21.561 1.7561 21.4753C1.53647 21.3897 1.33698 21.2593 1.1703 21.0925C1.00363 20.9257 0.87336 20.726 0.787778 20.5062C0.702197 20.2864 0.663191 20.0512 0.673154 19.8155V1.24254Z" fill="#5C5D5D"/>
</svg>
