<svg width="16" height="22" viewBox="0 0 16 22" fill="none" xmlns="http://www.w3.org/2000/svg">
<path d="M14.8932 21.7611C14.7596 21.7553 14.6285 21.7227 14.5078 21.6652C14.387 21.6078 14.279 21.5266 14.1902 21.4266L8.23691 13.9626C8.06486 13.6633 7.81603 13.4156 7.51613 13.2449C7.21624 13.0743 6.87619 12.987 6.53125 12.9921H2.31661V20.8581C2.30731 21.0887 2.21358 21.3079 2.05328 21.4738C1.89298 21.6398 1.67727 21.741 1.44727 21.7581C1.21535 21.7463 0.996564 21.6468 0.835171 21.4797C0.673779 21.3127 0.581857 21.0904 0.577974 20.8581V2.21307C0.567981 1.98177 0.60615 1.75094 0.690083 1.53521C0.774017 1.31948 0.901876 1.12357 1.06552 0.95994C1.22916 0.796308 1.42502 0.668525 1.64066 0.584711C1.85629 0.500897 2.08697 0.462885 2.31807 0.473085H8.43926C10.1905 0.386695 11.9063 0.987246 13.222 2.14708C13.8458 2.74334 14.3331 3.4677 14.6506 4.2704C14.9681 5.07309 15.1081 5.93507 15.061 6.79707C15.061 10.3116 12.9867 12.2871 9.5154 12.7551L15.6021 20.3196C15.7224 20.4838 15.7817 20.6848 15.77 20.8881C15.774 21.0042 15.754 21.1199 15.7113 21.2279C15.6686 21.3359 15.6041 21.434 15.5218 21.5159C15.4395 21.5979 15.3412 21.6619 15.233 21.7041C15.1249 21.7463 15.0092 21.7657 14.8932 21.7611ZM2.35105 11.2176H7.97015C11.5493 11.2176 13.3209 9.74457 13.3209 6.73257C13.3209 3.95457 11.6152 2.21307 8.40478 2.21307H2.35105V11.2176Z" fill="#5C5D5D"/>
</svg>
