<svg width="17" height="22" viewBox="0 0 17 22" fill="none" xmlns="http://www.w3.org/2000/svg">
<path d="M7.5161 2.21304H0.957278C0.838824 2.22001 0.720203 2.20269 0.608686 2.16212C0.497168 2.12154 0.395113 2.05858 0.308784 1.97711C0.222455 1.89564 0.15367 1.79736 0.106658 1.68833C0.0596463 1.5793 0.0354004 1.46179 0.0354004 1.34304C0.0354004 1.22429 0.0596463 1.1068 0.106658 0.997771C0.15367 0.888737 0.222455 0.790461 0.308784 0.70899C0.395113 0.62752 0.497168 0.564558 0.608686 0.523985C0.720203 0.483412 0.838824 0.466094 0.957278 0.473059H15.7071C15.9377 0.473059 16.1588 0.564716 16.3218 0.727873C16.4848 0.89103 16.5764 1.1123 16.5764 1.34304C16.5764 1.57378 16.4848 1.79507 16.3218 1.95823C16.1588 2.12138 15.9377 2.21304 15.7071 2.21304H9.25622V20.8236C9.25622 20.9378 9.23374 21.0509 9.19005 21.1565C9.14636 21.2621 9.08233 21.3579 9.00161 21.4387C8.92088 21.5195 8.82505 21.5836 8.71958 21.6273C8.61411 21.6711 8.50107 21.6935 8.38691 21.6935C8.27275 21.6935 8.15971 21.6711 8.05424 21.6273C7.94877 21.5836 7.85293 21.5195 7.77221 21.4387C7.69149 21.3579 7.62745 21.2621 7.58377 21.1565C7.54008 21.0509 7.5176 20.9378 7.5176 20.8236L7.5161 2.21304Z" fill="#27A365"/>
</svg>
