<svg width="20" height="6" viewBox="0 0 20 6" fill="none" xmlns="http://www.w3.org/2000/svg">
<path d="M14.6666 3.00002C14.6666 4.28335 15.7166 5.33335 16.9999 5.33335C18.2833 5.33335 19.3333 4.28335 19.3333 3.00002C19.3333 1.71669 18.2833 0.666687 16.9999 0.666687C15.7166 0.666687 14.6666 1.71669 14.6666 3.00002ZM12.3333 3.00002C12.3333 1.71669 11.2833 0.666687 9.99992 0.666687C8.71659 0.666687 7.66659 1.71669 7.66659 3.00002C7.66659 4.28335 8.71658 5.33335 9.99992 5.33335C11.2833 5.33335 12.3333 4.28335 12.3333 3.00002ZM5.33325 3.00002C5.33325 1.71669 4.28325 0.666686 2.99992 0.666686C1.71659 0.666686 0.666586 1.71669 0.666586 3.00002C0.666586 4.28335 1.71658 5.33335 2.99992 5.33335C4.28325 5.33335 5.33325 4.28335 5.33325 3.00002Z" fill="#212529"/>
</svg>
