<svg width="26" height="22" viewBox="0 0 26 22" fill="none" xmlns="http://www.w3.org/2000/svg">
<path d="M0.0642527 1.44352C0.0206075 1.30948 0.0101776 1.16685 0.0338355 1.02787C0.0574933 0.888899 0.114547 0.75775 0.200078 0.645734C0.28561 0.533717 0.397058 0.444181 0.524834 0.384831C0.65261 0.325481 0.792872 0.298106 0.933568 0.305043C1.03496 0.294534 1.13744 0.304537 1.23488 0.334477C1.33233 0.364418 1.42276 0.413675 1.50079 0.479314C1.57883 0.544952 1.64287 0.625631 1.68911 0.71655C1.73534 0.807468 1.76281 0.906767 1.76991 1.00853L6.01755 20.0885C6.01755 20.3225 6.25138 20.2565 6.31733 20.0885L11.133 1.88003C11.1996 1.44651 11.4246 1.05315 11.7643 0.776059C12.104 0.498966 12.5344 0.357846 12.9721 0.380025C13.4083 0.364134 13.8354 0.507559 14.1738 0.783544C14.5121 1.05953 14.7386 1.44923 14.8111 1.88003L19.5264 20.123C19.5938 20.291 19.8262 20.357 19.8262 20.123L24.1412 1.07303C24.1596 0.857548 24.2601 0.657407 24.422 0.514127C24.5838 0.370847 24.7946 0.295428 25.0106 0.303532C25.1525 0.288748 25.2959 0.311378 25.4264 0.369176C25.5569 0.426974 25.67 0.517922 25.7546 0.633008C25.8391 0.748093 25.8921 0.883325 25.9083 1.02524C25.9245 1.16716 25.9033 1.31084 25.8469 1.44204L21.5003 20.4545C21.4069 20.864 21.1774 21.2296 20.8492 21.4914C20.5211 21.7533 20.1139 21.8959 19.6942 21.8959C19.2746 21.8959 18.8673 21.7533 18.5392 21.4914C18.2111 21.2296 17.9816 20.864 17.8882 20.4545L13.0725 2.21154C13.0725 2.17176 13.0567 2.1336 13.0286 2.10547C13.0005 2.07734 12.9624 2.06153 12.9226 2.06153C12.8829 2.06153 12.8447 2.07734 12.8166 2.10547C12.7885 2.1336 12.7727 2.17176 12.7727 2.21154L7.88958 20.4545C7.79618 20.864 7.56663 21.2296 7.23851 21.4914C6.9104 21.7533 6.50317 21.8959 6.08351 21.8959C5.66384 21.8959 5.25661 21.7533 4.9285 21.4914C4.60038 21.2296 4.37083 20.864 4.27743 20.4545L0.0642527 1.44352Z" fill="#5C5D5D"/>
</svg>
