<svg width="24" height="24" viewBox="0 0 24 24" fill="none" xmlns="http://www.w3.org/2000/svg">
<path d="M23.25 10.75V8.25H20.75V5.75C20.748 5.08757 20.484 4.45283 20.0156 3.98442C19.5472 3.51601 18.9124 3.25198 18.25 3.25H15.75V0.75H13.25V3.25H10.75V0.75H8.25V3.25H5.75C5.08757 3.25198 4.45283 3.51601 3.98442 3.98442C3.51601 4.45283 3.25198 5.08757 3.25 5.75V8.25H0.75V10.75H3.25V13.25H0.75V15.75H3.25V18.25C3.25198 18.9124 3.51601 19.5472 3.98442 20.0156C4.45283 20.484 5.08757 20.748 5.75 20.75H8.25V23.25H10.75V20.75H13.25V23.25H15.75V20.75H18.25C18.9124 20.748 19.5472 20.484 20.0156 20.0156C20.484 19.5472 20.748 18.9124 20.75 18.25V15.75H23.25V13.25H20.75V10.75H23.25ZM18.25 18.25H5.75V5.75H18.25V18.25Z" fill="#002A3B"/>
</svg>
