<svg width="25" height="24" viewBox="0 0 25 24" fill="none" xmlns="http://www.w3.org/2000/svg">
<path d="M21.875 4.89794V5.6021C21.875 7.40835 23.2969 7.33231 23.4375 7.33231C23.5896 7.33231 25 7.41877 25 5.6021V4.89794C25 3.09169 23.5781 3.16773 23.4375 3.16773C23.2854 3.16773 21.875 3.08127 21.875 4.89794ZM24.0885 4.78335V5.70627C24.0885 6.43856 23.8604 6.68544 23.4479 6.68544C23.0354 6.68544 22.7969 6.43856 22.7969 5.70627V4.7844C22.7969 4.07085 23.0365 3.82398 23.4375 3.82398C23.85 3.81356 24.0885 4.07085 24.0885 4.7844V4.78335ZM21.875 12.1896V12.8938C21.875 14.7 23.2969 14.624 23.4375 14.624C23.5896 14.624 25 14.7104 25 12.8938V12.1896C25 10.3834 23.5781 10.4594 23.4375 10.4594C23.2854 10.4594 21.875 10.3729 21.875 12.1896ZM24.0885 12.075V12.9979C24.0885 13.7302 23.8604 13.9771 23.4479 13.9771C23.0354 13.9771 22.7969 13.7302 22.7969 12.9979V12.0761C22.7969 11.3625 23.0365 11.1156 23.4375 11.1156C23.85 11.1052 24.0885 11.3625 24.0885 12.0761V12.075ZM21.875 19.4813V20.1854C21.875 21.9917 23.2969 21.9156 23.4375 21.9156C23.5896 21.9156 25 22.0021 25 20.1854V19.4813C25 17.675 23.5781 17.7511 23.4375 17.7511C23.2854 17.7511 21.875 17.6646 21.875 19.4813ZM24.0885 19.3667V20.2896C24.0885 21.0219 23.8604 21.2688 23.4479 21.2688C23.0354 21.2688 22.7969 21.0219 22.7969 20.2896V19.3677C22.7969 18.6542 23.0365 18.4073 23.4375 18.4073C23.85 18.3969 24.0885 18.6542 24.0885 19.3677V19.3667ZM17.7083 9.0646V9.76877C17.7083 11.575 19.1302 11.499 19.2708 11.499C19.4229 11.499 20.8333 11.5854 20.8333 9.76877V9.0646C20.8333 7.25835 19.4115 7.3344 19.2708 7.3344C19.1187 7.3344 17.7083 7.24794 17.7083 9.0646ZM19.9219 8.95002V9.87294C19.9219 10.6052 19.6938 10.8521 19.2812 10.8521C18.8687 10.8521 18.6302 10.6052 18.6302 9.87294V8.95106C18.6302 8.23752 18.8698 7.99065 19.2708 7.99065C19.6833 7.98023 19.9219 8.23752 19.9219 8.95106V8.95002ZM17.7083 0.65627V1.33023L18.75 1.08231V4.20835H19.7917V0.041687M17.7083 15.2396V15.9136L18.75 15.6656V18.7917H19.7927V14.625M16.6667 20.875V24H0V20.875C0 18.1042 5.55208 16.7084 8.33333 16.7084C11.1146 16.7084 16.6667 18.1042 16.6667 20.875Z" fill="#002A3B"/>
</svg>
