<svg width="20" height="26" viewBox="0 0 20 26" fill="none" xmlns="http://www.w3.org/2000/svg">
<path d="M16.5 10.8333H11.0833V8.66667L14.3333 8.65583C15.1934 8.65584 16.0184 8.31492 16.6276 7.70776C17.2368 7.10061 17.5805 6.27674 17.5833 5.41667V3.25C17.5808 2.38884 17.2375 1.56368 16.6286 0.954744C16.0197 0.345808 15.1945 0.00257193 14.3333 0L5.66667 0C4.8055 0.00257193 3.98035 0.345808 3.37141 0.954744C2.76247 1.56368 2.41924 2.38884 2.41667 3.25V5.41667C2.41924 6.27783 2.76247 7.10299 3.37141 7.71192C3.98035 8.32086 4.8055 8.66409 5.66667 8.66667H8.91667V10.8333H3.5C2.63884 10.8359 1.81368 11.1791 1.20474 11.7881C0.595808 12.397 0.252572 13.2222 0.25 14.0833V22.75C0.252572 23.6112 0.595808 24.4363 1.20474 25.0453C1.81368 25.6542 2.63884 25.9974 3.5 26H16.5C17.3612 25.9974 18.1863 25.6542 18.7953 25.0453C19.4042 24.4363 19.7474 23.6112 19.75 22.75V14.0833C19.7474 13.2222 19.4042 12.397 18.7953 11.7881C18.1863 11.1791 17.3612 10.8359 16.5 10.8333ZM5.66667 6.5C5.37961 6.49914 5.10456 6.38473 4.90158 6.18175C4.6986 5.97877 4.58419 5.70372 4.58333 5.41667V3.25C4.58419 2.96295 4.6986 2.68789 4.90158 2.48491C5.10456 2.28194 5.37961 2.16752 5.66667 2.16667H14.3225C14.6107 2.16722 14.887 2.28119 15.0918 2.48393C15.2965 2.68666 15.4133 2.96187 15.4167 3.25V5.41667C15.4133 5.7048 15.2965 5.98 15.0918 6.18274C14.887 6.38548 14.6107 6.49945 14.3225 6.5H5.66667ZM10.4713 21.7447L10 22.2083L9.52875 21.7403C7.855 20.0861 6.75 18.9952 6.75 17.6562C6.73749 17.4104 6.774 17.1647 6.8574 16.9332C6.9408 16.7017 7.06943 16.4891 7.23579 16.3079C7.40215 16.1266 7.60291 15.9802 7.8264 15.8773C8.04988 15.7744 8.2916 15.7169 8.5375 15.7083C8.82125 15.7136 9.10014 15.7829 9.35338 15.911C9.60661 16.0391 9.82765 16.2228 10 16.4482C10.1724 16.2228 10.3934 16.0391 10.6466 15.911C10.8999 15.7829 11.1788 15.7136 11.4625 15.7083C11.7084 15.7169 11.9501 15.7744 12.1736 15.8773C12.3971 15.9802 12.5979 16.1266 12.7642 16.3079C12.9306 16.4891 13.0592 16.7017 13.1426 16.9332C13.226 17.1647 13.2625 17.4104 13.25 17.6562C13.25 18.9952 12.145 20.0861 10.4713 21.7447Z" fill="#002A3B"/>
</svg>
